<svg width="600" height="396" viewBox="0 0 600 396" fill="none" xmlns="http://www.w3.org/2000/svg">
<path fill-rule="evenodd" clip-rule="evenodd" d="M341.009 114.294C339.731 116.019 337.831 118.649 335.061 122.612C330.893 128.577 325.853 134.05 321.692 137.615V137.618C315.648 142.157 308.139 144.846 299.999 144.846C291.859 144.846 284.351 142.157 278.307 137.618V137.615C274.146 134.05 269.106 128.577 264.938 122.612C262.168 118.649 260.268 116.019 258.989 114.294C247.188 97.7716 227.851 87 206 87V101.462C223.202 101.462 238.43 110.041 247.577 123.154C248.346 124.186 249.29 125.566 250.364 127.135L250.364 127.135L250.364 127.136L250.364 127.136C252.235 129.87 254.5 133.179 256.916 136.23C260.561 140.83 263.893 144.163 263.893 144.163C263.893 144.163 263.896 144.162 263.896 144.162C273.08 153.508 285.863 159.308 299.999 159.308C314.136 159.308 326.918 153.508 336.103 144.162C336.103 144.162 336.106 144.163 336.106 144.163C336.106 144.163 339.438 140.829 343.082 136.23C345.499 133.179 347.764 129.869 349.635 127.135C350.709 125.566 351.653 124.186 352.422 123.154C361.569 110.041 376.797 101.462 393.999 101.462V87C372.148 87 352.811 97.7716 341.009 114.294ZM354.809 143.803C358.155 138.964 362.549 132.609 367.323 127.68C373.933 120.456 383.436 115.923 394 115.922V130.384C387.575 130.384 381.801 133.177 377.832 137.615C377.832 137.615 375.14 140.647 372.85 144.162C370.56 147.677 362.335 159.218 356.843 164.326H356.843C342.405 179.076 322.271 188.23 300 188.23C277.729 188.23 257.595 179.076 243.157 164.326H243.157C237.665 159.218 229.44 147.677 227.15 144.162C224.86 140.647 222.168 137.615 222.168 137.615C218.198 133.177 212.425 130.384 206 130.384V115.922C216.565 115.922 226.068 120.456 232.678 127.68C237.452 132.61 241.847 138.966 245.193 143.805L245.193 143.805L245.195 143.808C245.759 144.623 246.293 145.396 246.794 146.111C249.296 149.683 251.493 152.076 251.493 152.076C263.409 165.39 280.726 173.768 300 173.768C319.274 173.768 336.591 165.39 348.508 152.076C348.508 152.076 350.704 149.683 353.207 146.111C353.709 145.394 354.244 144.62 354.809 143.803ZM390.913 145.542C390.929 145.532 390.946 145.523 390.963 145.514L390.964 145.521C391.888 145.092 392.914 144.846 394 144.846V159.308H379.223C379.728 158.49 381.136 156.453 382.805 154.21C383.161 153.731 383.521 153.227 383.89 152.711C385.543 150.4 387.366 147.85 389.767 146.222C390.112 145.972 390.48 145.754 390.867 145.567C390.874 145.563 390.882 145.559 390.889 145.555L390.913 145.542ZM209.134 145.567C209.521 145.754 209.888 145.972 210.233 146.222C212.634 147.849 214.457 150.398 216.109 152.709C216.478 153.225 216.839 153.73 217.196 154.209C218.865 156.453 220.272 158.49 220.778 159.307H206.001V144.845C207.086 144.845 208.112 145.091 209.037 145.52L209.038 145.514C209.055 145.523 209.072 145.532 209.089 145.542C209.104 145.55 209.119 145.559 209.134 145.567ZM232.174 173.769H206V188.231H249.892C243.408 184.137 237.458 179.275 232.174 173.769ZM394 188.231H350.109C356.592 184.137 362.542 179.275 367.826 173.769H394V188.231Z" fill="#00DAE8"/>
<path d="M319.348 286.792C320.163 294.479 327.088 307.658 347.195 307.658C364.716 307.658 373.136 296.401 373.136 285.419C373.136 275.535 366.484 267.436 353.305 264.69L343.798 262.631C340.129 261.945 337.685 259.886 337.685 256.592C337.685 252.747 341.487 249.864 346.242 249.864C351.744 249.864 354.759 252.522 356.213 255.5H372.294L372.322 255.493C371.508 248.217 365.125 236 346.104 236C331.709 236 321.112 246.021 321.112 258.101C321.112 267.574 326.953 275.398 339.858 278.281L348.687 280.34C353.848 281.438 355.887 283.909 355.887 286.929C355.887 290.498 353.033 293.656 347.058 293.656C340.913 293.656 337.165 290.651 335.618 286.788H319.365L319.348 286.792Z" fill="black"/>
<path fill-rule="evenodd" clip-rule="evenodd" d="M429.422 286.788C426.785 290.002 422.796 292.009 417.013 292.009C408.046 292.009 400.574 285.556 400.169 276.633H447.981C447.981 276.585 447.991 276.462 448.005 276.277L448.023 276.025L448.024 276.019L448.024 276.016C448.1 275.011 448.253 272.969 448.253 271.005C448.253 249.316 435.893 236 415.246 236C398.13 236 382.373 250.002 382.373 271.554C382.373 294.342 398.54 307.658 416.875 307.658C433.056 307.658 443.577 298.213 447.14 286.788H429.422ZM400.574 264.142C400.984 257.964 406.145 250.826 415.517 250.826C425.843 250.826 430.189 257.415 430.46 264.142H400.574Z" fill="black"/>
<path d="M458.226 286.789H474.482C476.026 290.651 479.773 293.656 485.917 293.657C491.897 293.657 494.747 290.499 494.747 286.93C494.747 283.91 492.711 281.439 487.547 280.341L478.718 278.282C465.813 275.399 459.972 267.574 459.972 258.102C459.972 246.022 470.569 236.001 484.969 236.001C503.986 236.001 510.37 248.218 511.185 255.493L511.154 255.501H495.073C493.622 252.523 490.607 249.865 485.103 249.865C480.351 249.865 476.545 252.748 476.545 256.592C476.545 259.887 478.989 261.946 482.658 262.632L492.168 264.691C505.344 267.437 512 275.536 512 285.42C512 296.402 503.576 307.659 486.055 307.659C465.951 307.659 459.023 294.48 458.208 286.793L458.226 286.789Z" fill="black"/>
<path d="M305.709 236.001H287.644V307.658H305.709V236.001Z" fill="black"/>
<path fill-rule="evenodd" clip-rule="evenodd" d="M238.336 236.001C218.369 236.001 203.289 250.964 203.289 271.829C203.289 292.558 218.369 307.658 238.336 307.658C258.305 307.658 273.381 292.558 273.381 271.829C273.381 250.964 258.305 236.001 238.336 236.001ZM238.336 291.047C229.506 291.047 221.357 284.459 221.357 271.829C221.357 259.063 229.506 252.611 238.336 252.611C247.165 252.611 255.317 259.062 255.317 271.829C255.317 284.596 247.165 291.047 238.336 291.047Z" fill="black"/>
<path d="M106.064 266.063V307.564H88V238.059H97.015C101.564 238.059 105.25 241.747 105.25 246.296C108.919 239.706 117.477 236.137 124.811 236.137C133.911 236.137 141.249 240.118 144.646 247.394C149.941 239.157 157.006 236.137 165.836 236.137C178.196 236.137 190.014 243.687 190.014 261.808V307.564H172.493V265.514C172.493 258.239 168.958 252.748 160.672 252.748C152.929 252.748 148.311 258.788 148.311 266.063V307.564H130.38V265.514C130.38 258.239 126.715 252.748 118.563 252.748C110.686 252.748 106.064 258.651 106.064 266.063Z" fill="black"/>
</svg>
